<svg xmlns="http://www.w3.org/2000/svg" version="1.1" xmlns:xlink="http://www.w3.org/1999/xlink" xmlns:svgjs="http://svgjs.dev/svgjs" width="1500" height="469" viewBox="0 0 1500 469"><g transform="matrix(1,0,0,1,-0.9090909090909918,-0.5467232883167696)"><svg viewBox="0 0 396 124" data-background-color="#051622" preserveAspectRatio="xMidYMid meet" height="469" width="1500" xmlns="http://www.w3.org/2000/svg" xmlns:xlink="http://www.w3.org/1999/xlink"><g id="tight-bounds" transform="matrix(1,0,0,1,0.2400000000000091,0.14454944083428245)"><svg viewBox="0 0 395.52 123.7109011183314" height="123.7109011183314" width="395.52"><g><svg viewBox="0 0 681.0654101040445 213.023906767034" height="123.7109011183314" width="395.52"><g transform="matrix(1,0,0,1,285.5454101040445,19.433957094092136)"><svg viewBox="0 0 395.52 174.15599257884972" height="174.15599257884972" width="395.52"><g id="textblocktransform"><svg viewBox="0 0 395.52 174.15599257884972" height="174.15599257884972" width="395.52" id="textblock"><g><svg viewBox="0 0 395.52 174.15599257884972" height="174.15599257884972" width="395.52"><g transform="matrix(1,0,0,1,0,0)"><svg width="395.52" viewBox="3 -35 80.85 35.6" height="174.15599257884972" data-palette-color="#1ba098"><path d="M44.2 0L33.25 0 33.25-12.4Q33.25-14.7 33.43-17.13 33.6-19.55 33.8-21.2 34-22.85 34.05-23.3L34.05-23.3 33.85-23.3 27.5 0 18.85 0 12.45-23.25 12.25-23.25Q12.3-22.8 12.53-21.18 12.75-19.55 12.95-17.13 13.15-14.7 13.15-12.4L13.15-12.4 13.15 0 3 0 3-34.4 18.6-34.4 23.8-14.55 24-14.55 29.15-34.4 44.2-34.4 44.2 0ZM67.3-35Q74.95-35 79.4-31.18 83.85-27.35 83.85-20.25L83.85-20.25 73.3-20.25Q73.3-23.25 71.72-25 70.15-26.75 67.25-26.75L67.25-26.75Q63.9-26.75 62.32-24.65 60.75-22.55 60.75-18.8L60.75-18.8 60.75-15.6Q60.75-11.9 62.32-9.78 63.9-7.65 67.15-7.65L67.15-7.65Q70.35-7.65 72-9.3 73.65-10.95 73.65-13.95L73.65-13.95 83.85-13.95Q83.85-6.9 79.52-3.15 75.2 0.6 67.3 0.6L67.3 0.6Q58.5 0.6 53.97-3.9 49.45-8.4 49.45-17.2L49.45-17.2Q49.45-26 53.97-30.5 58.5-35 67.3-35L67.3-35Z" opacity="1" transform="matrix(1,0,0,1,0,0)" fill="#1ba098" class="wordmark-text-0" data-fill-palette-color="primary" id="text-0"></path></svg></g></svg></g></svg></g></svg></g><g><svg viewBox="0 0 244.43135999999998 213.023906767034" height="213.023906767034" width="244.43135999999998"><g><svg xmlns="http://www.w3.org/2000/svg" xmlns:xlink="http://www.w3.org/1999/xlink" version="1.0" x="0" y="0" viewBox="1.118 4.1185758 47.921 41.76353899999999" enable-background="new 0 0 50 50" xml:space="preserve" height="213.023906767034" width="244.43135999999998" class="icon-icon-0" data-fill-palette-color="accent" id="icon-0"><g fill="#1ba098" data-fill-palette-color="accent"><g fill="#1ba098" data-fill-palette-color="accent"><polygon fill="#1ba098" points="10.821,24.951 21,32.193 21,39.035 1.118,24.891 21,11.118 21,17.9   " data-fill-palette-color="accent"></polygon></g><g fill="#1ba098" data-fill-palette-color="accent"><polygon fill="#1ba098" points="49.039,25.277 35.815,16.063 34.219,21.712 39.475,25.338 31.411,30.97 29,38.79 29,39.424   " data-fill-palette-color="accent"></polygon></g><rect x="25.577" y="3.983" transform="matrix(0.9606 0.278 -0.278 0.9606 8.0575 -6.8179)" fill="#1ba098" width="4.981" height="42.035" data-fill-palette-color="accent"></rect></g></svg></g></svg></g></svg></g><defs></defs></svg><rect width="395.52" height="123.7109011183314" fill="none" stroke="none" visibility="hidden"></rect></g></svg></g></svg>